<svg xmlns="http://www.w3.org/2000/svg" width="256" height="256" fill="none" viewBox="0 0 256 256" id="telegram">
  <rect width="224" height="224" x="16" y="16" fill="#EEE" rx="70"></rect>
  <path fill="url(#paint0_linear_533_2162)" fill-rule="evenodd" d="M80.8652 80.859C93.3548 68.3611 110.324 61.333 128.001 61.333C145.678 61.333 162.646 68.3611 175.136 80.859C187.636 93.357 194.667 110.326 194.667 128C194.667 145.674 187.636 162.642 175.136 175.14C162.646 187.638 145.678 194.666 128.001 194.666C110.324 194.666 93.3548 187.638 80.8652 175.14C68.3652 162.642 61.334 145.674 61.334 128C61.3374 110.318 68.3628 93.3619 80.8652 80.859ZM130.385 110.547C123.906 113.244 110.948 118.827 91.5104 127.293C88.3541 128.549 86.6979 129.777 86.552 130.977C86.2955 133.004 88.8343 133.803 92.2839 134.89C92.7571 135.039 93.2474 135.193 93.7499 135.357C97.1562 136.463 101.74 137.758 104.115 137.809C106.281 137.856 108.687 136.965 111.344 135.138C129.51 122.881 138.875 116.685 139.469 116.552C139.885 116.458 140.458 116.339 140.844 116.686C141.24 117.032 141.198 117.688 141.156 117.864C140.91 118.935 130.975 128.172 125.805 132.979C124.18 134.49 123.026 135.563 122.792 135.807C122.268 136.35 121.735 136.865 121.222 137.359C118.061 140.406 115.689 142.692 121.354 146.425C124.101 148.234 126.293 149.727 128.484 151.22C130.839 152.823 133.192 154.426 136.229 156.418C137.01 156.93 137.756 157.462 138.483 157.98C141.244 159.948 143.724 161.716 146.792 161.434C148.573 161.27 150.417 159.595 151.344 154.6C153.552 142.792 157.896 117.211 158.896 106.669C158.99 105.746 158.875 104.564 158.792 104.045C158.698 103.526 158.51 102.787 157.844 102.24C157.042 101.591 155.812 101.455 155.26 101.464C152.75 101.509 148.906 102.846 130.385 110.547Z" clip-rule="evenodd"></path>
  <defs>
    <linearGradient id="paint0_linear_533_2162" x1="128.001" x2="128.001" y1="61.333" y2="194.666" gradientUnits="userSpaceOnUse">
      <stop stop-color="#2AABEE"></stop>
      <stop offset="1" stop-color="#229ED9"></stop>
    </linearGradient>
  </defs>
</svg>
