<svg width="900" height="900" viewBox="0 0 900 900" fill="none" xmlns="http://www.w3.org/2000/svg">
<rect width="900" height="900" fill="#111111"/>
<mask id="mask0_1150_123" style="mask-type:luminance" maskUnits="userSpaceOnUse" x="173" y="199" width="514" height="466">
<path d="M686.277 199.257H173.527V664.499H686.277V199.257Z" fill="white"/>
</mask>
<g mask="url(#mask0_1150_123)">
<path fill-rule="evenodd" clip-rule="evenodd" d="M305.078 604.601C352.046 642.756 406.304 664.501 464.17 664.501C550.221 664.501 628.336 616.272 686.305 537.717C661.829 504.56 633.773 476.786 603.011 455.789L553.621 480.445C564.236 496.96 570.419 516.617 570.419 537.717C570.419 596.331 522.859 643.839 464.17 643.839C418.568 643.839 379.69 615.138 364.618 574.843L305.078 604.575V604.601ZM427.611 543.411C428.795 551.115 432.403 558.278 437.994 563.868C444.924 570.799 454.353 574.689 464.17 574.663C484.6 574.663 501.167 558.122 501.167 537.717C501.167 527.695 497.173 518.601 490.681 511.928L427.636 543.411H427.611Z" fill="#2BAD72"/>
<path d="M318.533 536.892L678.531 363.836L599.41 199.257L558.548 344.694L509.443 242.515L468.556 387.951L419.45 285.772L378.563 431.209L329.457 329.029L288.57 474.466L239.465 372.287L173.535 606.608L263.528 563.351L318.533 536.917V536.892Z" fill="#2BAD72"/>
</g>
</svg>
